<?xml version="1.0" encoding="UTF-8"?>
<!DOCTYPE svg PUBLIC "-//W3C//DTD SVG 1.1//EN" "http://www.w3.org/Graphics/SVG/1.1/DTD/svg11.dtd">
<svg xmlns="http://www.w3.org/2000/svg" style="background: transparent; background-color: transparent; color-scheme: light;" xmlns:xlink="http://www.w3.org/1999/xlink" version="1.1" width="257px" height="258px" viewBox="-0.5 -0.5 257 258"><defs/><g><g data-cell-id="0"><g data-cell-id="1"><g data-cell-id="g81JowKMKbIRDDNxlNrL-3"><g><path d="M 148 219 L 148 118 Q 148 108 138 108 L 78 108 Q 68 108 68 118 L 68 218 Q 68 228 78 228 L 99 228" fill="none" stroke="#028430" stroke-width="18" stroke-miterlimit="10" pointer-events="stroke" style="stroke: rgb(2, 132, 48);"/><ellipse cx="148" cy="228" rx="9" ry="9" fill="#028430" stroke="#028430" stroke-width="18" pointer-events="all" style="fill: rgb(2, 132, 48); stroke: rgb(2, 132, 48);"/><ellipse cx="108" cy="228" rx="9" ry="9" fill="#028430" stroke="#028430" stroke-width="18" pointer-events="all" style="fill: rgb(2, 132, 48); stroke: rgb(2, 132, 48);"/></g></g><g data-cell-id="g81JowKMKbIRDDNxlNrL-4"><g><path d="M 68 188 L 38 188 Q 28 188 28 198 L 28 219" fill="none" stroke="#028430" stroke-width="18" stroke-miterlimit="10" pointer-events="stroke" style="stroke: rgb(2, 132, 48);"/><ellipse cx="28" cy="228" rx="9" ry="9" fill="#028430" stroke="#028430" stroke-width="18" pointer-events="all" style="fill: rgb(2, 132, 48); stroke: rgb(2, 132, 48);"/></g></g><g data-cell-id="g81JowKMKbIRDDNxlNrL-5"><g><path d="M 68 148 L 37 148" fill="none" stroke="#ffbe00" stroke-width="18" stroke-miterlimit="10" pointer-events="stroke" style="stroke: rgb(255, 190, 0);"/><ellipse cx="28" cy="148" rx="9" ry="9" fill="#ffbe00" stroke="#ffbe00" stroke-width="18" pointer-events="all" style="fill: rgb(255, 190, 0); stroke: rgb(255, 190, 0);"/></g></g><g data-cell-id="g81JowKMKbIRDDNxlNrL-6"><g><path d="M 68 108 L 68 37" fill="none" stroke="#ffbe00" stroke-width="18" stroke-miterlimit="10" pointer-events="stroke" style="stroke: rgb(255, 190, 0);"/><ellipse cx="68" cy="28" rx="9" ry="9" fill="#ffbe00" stroke="#ffbe00" stroke-width="18" pointer-events="all" style="fill: rgb(255, 190, 0); stroke: rgb(255, 190, 0);"/></g></g><g data-cell-id="g81JowKMKbIRDDNxlNrL-7"><g><path d="M 68 108 L 38 108 Q 28 108 28 98 L 28 37" fill="none" stroke="#ffbe00" stroke-width="18" stroke-miterlimit="10" pointer-events="stroke" style="stroke: rgb(255, 190, 0);"/><ellipse cx="28" cy="28" rx="9" ry="9" fill="#ffbe00" stroke="#ffbe00" stroke-width="18" pointer-events="all" style="fill: rgb(255, 190, 0); stroke: rgb(255, 190, 0);"/></g></g><g data-cell-id="g81JowKMKbIRDDNxlNrL-8"><g><path d="M 148 148 L 118 148 Q 108 148 108 158 L 108 179" fill="none" stroke="#f178af" stroke-width="18" stroke-miterlimit="10" pointer-events="stroke" style="stroke: rgb(241, 120, 175);"/><ellipse cx="108" cy="188" rx="9" ry="9" fill="#f178af" stroke="#f178af" stroke-width="18" pointer-events="all" style="fill: rgb(241, 120, 175); stroke: rgb(241, 120, 175);"/></g></g><g data-cell-id="g81JowKMKbIRDDNxlNrL-9"><g><path d="M 108 108 L 108 38 Q 108 28 118 28 L 139 28" fill="none" stroke="#be1014" stroke-width="18" stroke-miterlimit="10" pointer-events="stroke" style="stroke: rgb(190, 16, 20);"/><ellipse cx="148" cy="28" rx="9" ry="9" fill="#be1014" stroke="#be1014" stroke-width="18" pointer-events="all" style="fill: rgb(190, 16, 20); stroke: rgb(190, 16, 20);"/></g></g><g data-cell-id="g81JowKMKbIRDDNxlNrL-10"><g><path d="M 108 68 L 139 68" fill="none" stroke="#be1014" stroke-width="18" stroke-miterlimit="10" pointer-events="stroke" style="stroke: rgb(190, 16, 20);"/><ellipse cx="148" cy="68" rx="9" ry="9" fill="#be1014" stroke="#be1014" stroke-width="18" pointer-events="all" style="fill: rgb(190, 16, 20); stroke: rgb(190, 16, 20);"/></g></g><g data-cell-id="g81JowKMKbIRDDNxlNrL-11"><g><path d="M 138 108 L 178 108 Q 188 108 188 98 L 188 37" fill="none" stroke="#1526cb" stroke-width="18" stroke-miterlimit="10" pointer-events="stroke" style="stroke: rgb(21, 38, 203);"/><ellipse cx="188" cy="28" rx="9" ry="9" fill="#1526cb" stroke="#1526cb" stroke-width="18" pointer-events="all" style="fill: rgb(21, 38, 203); stroke: rgb(21, 38, 203);"/></g></g><g data-cell-id="g81JowKMKbIRDDNxlNrL-12"><g><path d="M 188 68 L 218 68 Q 228 68 228 58 L 228 37" fill="none" stroke="#1526cb" stroke-width="18" stroke-miterlimit="10" pointer-events="stroke" style="stroke: rgb(21, 38, 203);"/><ellipse cx="228" cy="28" rx="9" ry="9" fill="#1526cb" stroke="#1526cb" stroke-width="18" pointer-events="all" style="fill: rgb(21, 38, 203); stroke: rgb(21, 38, 203);"/></g></g><g data-cell-id="g81JowKMKbIRDDNxlNrL-13"><g><path d="M 148 188 L 219 188" fill="none" stroke="#279fd5" stroke-width="18" stroke-miterlimit="10" pointer-events="stroke" style="stroke: rgb(39, 159, 213);"/><ellipse cx="228" cy="188" rx="9" ry="9" fill="#279fd5" stroke="#279fd5" stroke-width="18" pointer-events="all" style="fill: rgb(39, 159, 213); stroke: rgb(39, 159, 213);"/></g></g><g data-cell-id="g81JowKMKbIRDDNxlNrL-14"><g><path d="M 188 188 L 188 218 Q 188 228 198 228 L 219 228" fill="none" stroke="#279fd5" stroke-width="18" stroke-miterlimit="10" pointer-events="stroke" style="stroke: rgb(39, 159, 213);"/><ellipse cx="228" cy="228" rx="9" ry="9" fill="#279fd5" stroke="#279fd5" stroke-width="18" pointer-events="all" style="fill: rgb(39, 159, 213); stroke: rgb(39, 159, 213);"/></g></g><g data-cell-id="g81JowKMKbIRDDNxlNrL-15"><g><path d="M 68 158 L 68 118 Q 68 108 78 108 L 138 108 Q 148 108 148 118 L 148 198" fill="none" stroke="#0072ce" stroke-width="18" stroke-miterlimit="10" pointer-events="stroke" style="stroke: rgb(0, 114, 206);"/></g></g><g data-cell-id="gPeray8Sz1fldj7aJoDF-2"><g><path d="M 188 108 L 218 108 Q 228 108 228 118 L 228 139" fill="none" stroke="#1526cb" stroke-width="18" stroke-miterlimit="10" pointer-events="stroke" style="stroke: rgb(21, 38, 203);"/><ellipse cx="228" cy="148" rx="9" ry="9" fill="#1526cb" stroke="#1526cb" stroke-width="18" pointer-events="all" style="fill: rgb(21, 38, 203); stroke: rgb(21, 38, 203);"/></g></g><g data-cell-id="gPeray8Sz1fldj7aJoDF-3"><g><path d="M 188 108 L 188 139" fill="none" stroke="#1526cb" stroke-width="18" stroke-miterlimit="10" pointer-events="stroke" style="stroke: rgb(21, 38, 203);"/><ellipse cx="188" cy="148" rx="9" ry="9" fill="#1526cb" stroke="#1526cb" stroke-width="18" pointer-events="all" style="fill: rgb(21, 38, 203); stroke: rgb(21, 38, 203);"/></g></g></g></g></g></svg>