<?xml version="1.0" encoding="utf-8"?>
<!-- Generator: Adobe Illustrator 27.8.1, SVG Export Plug-In . SVG Version: 6.00 Build 0)  -->
<svg version="1.1" id="Artwork" xmlns="http://www.w3.org/2000/svg" xmlns:xlink="http://www.w3.org/1999/xlink" x="0px" y="0px"
	 viewBox="0 0 283.46 283.46" style="enable-background:new 0 0 283.46 283.46;" xml:space="preserve">
<style type="text/css">
	.st0{fill:#0072CE;}
	.st1{fill:#FFFFFF;}
	.st2{fill:#FFFFFF;}
	.st3{fill:#7F0D82;}
	.st4{fill:#FFFFFF;}
	.st5{fill:#78BE20;}
	.st6{fill:#FF8200;}
	.st7{fill:#FFFFFF;}
</style>
<mask id="topLeft" mask-type="alpha">
	<path d="M 141.73 141.73 L 141.73 0 L 0 0 L 0 141.73 Z" fill="black"/>
</mask>
<mask id="topRight" mask-type="alpha">
	<path d="M 141.73 141.73 L 141.73 0 L 283.46 0 L 283.46 141.73 Z" fill="black"/>
</mask>
<mask id="bottomLeft" mask-type="alpha">
	<path d="M 141.73 141.73 L 141.73 283.46 L 0 283.46 L 0 141.73 Z" fill="black"/>
</mask>
<mask id="bottomRight" mask-type="alpha">
	<path d="M 141.73 141.73 L 141.73 283.46 L 283.46 283.46 L 283.46 141.73 Z" fill="black"/>
</mask>
<g mask="url(#topLeft)">
	<path class="st0" d="M141.75,0C63.62,0,0,63.63,0,141.77s63.62,141.69,141.75,141.69c78.13,0,141.71-63.55,141.71-141.69
		S219.89,0,141.75,0z"/>
	<g>
		<path class="st1" d="M178.98,88.45h-34.64v31.54h36.95C181.03,116.63,179.1,90.46,178.98,88.45z"/>
		<path class="st1" d="M138.97,88.45h-34.6c-0.17,2.01-2.1,28.19-2.35,31.54h36.95V88.45z"/>
		<path class="st1" d="M221.79,214.88h-29.77l-7.84-11.49h22.56c1.47,0,2.64-1.22,2.64-2.68c0-1.51-1.17-2.73-2.64-2.73h-26.26
			l-8.18-12.04h29.78c10.48,0,19.04-8.51,19.04-19v-0.25l-7-95.76v0.38c0-10.49-8.55-19.04-19.08-19.04H88.26
			c-10.48,0-19.04,8.56-19.04,19.04v-0.38l-7.04,95.76v0.25c0,10.49,8.55,19,19.08,19h29.95l-8.18,12.04H76.77
			c-1.47,0-2.64,1.22-2.64,2.73c0,1.47,1.17,2.68,2.64,2.68h22.56l-7.84,11.49H61.72c-3.02,0-5.37,2.39-5.37,5.37
			c0,2.94,2.35,5.37,5.37,5.37h22.48l-7.51,10.99c-0.46,0.71-0.5,1.64-0.13,2.35c0.38,0.76,1.22,1.22,2.06,1.22h15.94
			c0.96,0,1.76-0.59,2.14-1.43l5.2-13.13h79.73l5.2,13.13c0.38,0.84,1.17,1.43,2.14,1.43h15.94c0.84,0,1.68-0.46,2.06-1.22
			c0.38-0.71,0.34-1.64-0.13-2.35l-7.51-10.99h22.48c3.02,0,5.37-2.43,5.37-5.37C227.16,217.28,224.81,214.88,221.79,214.88z
			 M172.05,164.93c-3.48,0-6.29-2.81-6.29-6.29c0-3.48,2.81-6.29,6.29-6.29c3.48,0,6.37,2.81,6.37,6.29
			C178.43,162.12,175.53,164.93,172.05,164.93z M170.66,197.99h-57.81l4.83-12.04h48.16L170.66,197.99z M195.31,158.64
			c0,3.48-2.81,6.29-6.29,6.29c-3.52,0-6.29-2.81-6.29-6.29c0-3.48,2.77-6.29,6.29-6.29C192.5,152.35,195.31,155.16,195.31,158.64z
			 M91.16,121.12l2.56-34.27c0-5.03,4.11-9.14,9.14-9.14h77.54c5.07,0,9.18,4.11,9.18,9.14l2.56,34.27v0.42
			c0,5.08-4.11,9.14-9.14,9.14h-82.7c-5.03,0-9.18-4.07-9.18-9.14C91.12,121.41,91.16,121.29,91.16,121.12z M94.49,164.94
			c-3.48,0-6.29-2.81-6.29-6.29c0-3.48,2.81-6.29,6.29-6.29c3.52,0,6.29,2.81,6.29,6.29C100.78,162.13,98.01,164.94,94.49,164.94z
			 M105.08,158.64c0-3.48,2.9-6.29,6.37-6.29c3.48,0,6.29,2.81,6.29,6.29c0,3.48-2.81,6.29-6.29,6.29
			C107.97,164.93,105.08,162.12,105.08,158.64z M106.15,214.86l4.57-11.49h62.05l4.57,11.49H106.15z"/>
	</g>
</g>
<g mask="url(#topRight)">
	<path class="st2" d="M137.77,88.42h-34.61c-0.16,2.04-2.11,28.16-2.37,31.54h36.98V88.42z"/>
	<path class="st2" d="M177.76,88.42h-34.62v31.54h36.96C179.87,116.58,177.9,90.46,177.76,88.42z"/>
	<path class="st2" d="M220.52,214.85H190.6l-7.84-11.5h22.62c1.5,0,2.66-1.19,2.66-2.67c0-1.48-1.16-2.7-2.66-2.7h-26.28l-8.2-12.04
		h29.96c10.5,0,19.08-8.52,19.08-19.02v-0.22l-7.05-95.79v0.4c0-10.5-8.55-19.06-19.06-19.06H87.08c-10.52,0-19.07,8.56-19.07,19.06
		v-0.4l-7.04,95.79v0.22c0,10.5,8.54,19.02,19.06,19.02h29.95l-8.19,12.04H75.57c-1.46,0-2.66,1.22-2.66,2.7
		c0,1.49,1.2,2.67,2.66,2.67h22.56l-7.86,11.5H60.49c-2.99,0-5.35,2.4-5.35,5.38c0,2.95,2.37,5.36,5.35,5.36h22.48l-7.47,10.99
		c-0.48,0.69-0.52,1.62-0.15,2.33c0.41,0.76,1.22,1.23,2.05,1.23h15.95c0.95,0,1.76-0.57,2.12-1.44l5.21-13.11h79.54l5.22,13.11
		c0.34,0.87,1.19,1.44,2.13,1.44h15.99c0.82,0,1.61-0.47,2-1.23c0.4-0.71,0.34-1.64-0.13-2.33l-7.48-10.99h22.59
		c2.91,0,5.38-2.42,5.38-5.36C225.9,217.25,223.43,214.85,220.52,214.85z M170.85,164.92c-3.47,0-6.27-2.81-6.27-6.3
		c0-3.48,2.81-6.3,6.27-6.3c3.5,0,6.35,2.81,6.35,6.3C177.2,162.11,174.35,164.92,170.85,164.92z M169.22,197.97h-57.55l4.8-12.04
		h47.98L169.22,197.97z M194.12,158.62c0,3.48-2.81,6.3-6.31,6.3c-3.52,0-6.29-2.81-6.29-6.3c0-3.48,2.77-6.3,6.29-6.3
		C191.31,152.33,194.12,155.14,194.12,158.62z M89.97,121.12l2.53-34.3c0.01-5.03,4.12-9.14,9.17-9.14h77.54
		c5.06,0,9.18,4.11,9.19,9.13l2.57,34.31v0.39c0,5.07-4.1,9.16-9.16,9.16H99.09c-5.04,0-9.17-4.09-9.17-9.16
		C89.92,121.4,89.95,121.25,89.97,121.12z M93.09,164.92c-3.48,0-6.3-2.81-6.3-6.3c0-3.48,2.82-6.3,6.3-6.3
		c3.48,0,6.28,2.81,6.28,6.3C99.37,162.11,96.57,164.92,93.09,164.92z M103.72,158.62c0-3.48,2.82-6.3,6.35-6.3
		c3.45,0,6.28,2.81,6.28,6.3c0,3.48-2.84,6.3-6.28,6.3C106.53,164.92,103.72,162.11,103.72,158.62z M104.96,214.85l4.56-11.5h61.86
		l4.56,11.5H104.96z"/>
	<path class="st3" d="M99.09,130.67h82.72c5.06,0,9.16-4.09,9.16-9.16v-0.39l-2.57-34.31c-0.01-5.02-4.13-9.13-9.19-9.13h-77.54
		c-5.05,0-9.16,4.11-9.17,9.14l-2.53,34.3c-0.02,0.13-0.05,0.28-0.05,0.39C89.92,126.58,94.05,130.67,99.09,130.67z M143.15,88.42
		h34.62c0.14,2.04,2.1,28.16,2.35,31.54h-36.96V88.42z M103.17,88.42h34.61v31.54h-36.98C101.05,116.58,103,90.46,103.17,88.42z"/>
	<path class="st3" d="M181.53,158.62c0,3.48,2.77,6.3,6.29,6.3c3.49,0,6.31-2.81,6.31-6.3c0-3.48-2.81-6.3-6.31-6.3
		C184.3,152.33,181.53,155.14,181.53,158.62z"/>
	<path class="st3" d="M170.85,152.33c-3.47,0-6.27,2.81-6.27,6.3c0,3.48,2.81,6.3,6.27,6.3c3.5,0,6.35-2.81,6.35-6.3
		C177.2,155.14,174.35,152.33,170.85,152.33z"/>
	<path class="st3" d="M93.09,152.33c-3.48,0-6.3,2.81-6.3,6.3c0,3.48,2.82,6.3,6.3,6.3c3.48,0,6.28-2.81,6.28-6.3
		C99.37,155.14,96.57,152.33,93.09,152.33z"/>
	<path class="st3" d="M116.34,158.62c0-3.48-2.84-6.3-6.28-6.3c-3.53,0-6.35,2.81-6.35,6.3c0,3.48,2.82,6.3,6.35,6.3
		C113.51,164.92,116.34,162.11,116.34,158.62z"/>
	<polygon class="st3" points="109.52,203.35 104.96,214.85 175.93,214.85 171.38,203.35 	"/>
	<polygon class="st3" points="116.46,185.93 111.67,197.97 169.22,197.97 164.45,185.93 	"/>
	<path class="st3" d="M141.77,0C63.6,0,0,63.59,0,141.76c0,78.14,63.6,141.71,141.77,141.71c78.13,0,141.69-63.56,141.69-141.71
		C283.46,63.59,219.9,0,141.77,0z M220.52,225.6h-22.59l7.48,10.99c0.48,0.69,0.53,1.62,0.13,2.33c-0.39,0.76-1.18,1.23-2,1.23
		h-15.99c-0.94,0-1.79-0.57-2.13-1.44l-5.22-13.11h-79.54l-5.21,13.11c-0.36,0.87-1.17,1.44-2.12,1.44H77.4
		c-0.84,0-1.65-0.47-2.05-1.23c-0.37-0.71-0.33-1.64,0.15-2.33l7.47-10.99H60.49c-2.99,0-5.35-2.42-5.35-5.36
		c0-2.98,2.37-5.38,5.35-5.38h29.78l7.86-11.5H75.57c-1.46,0-2.66-1.19-2.66-2.67c0-1.48,1.2-2.7,2.66-2.7h26.23l8.19-12.04H80.04
		c-10.53,0-19.06-8.52-19.06-19.02v-0.22l7.04-95.79v0.4c0-10.5,8.55-19.06,19.07-19.06h106.75c10.51,0,19.06,8.56,19.06,19.06v-0.4
		l7.05,95.79v0.22c0,10.5-8.58,19.02-19.08,19.02h-29.96l8.2,12.04h26.28c1.5,0,2.66,1.22,2.66,2.7c0,1.49-1.16,2.67-2.66,2.67
		h-22.62l7.84,11.5h29.91c2.91,0,5.38,2.4,5.38,5.38C225.9,223.18,223.43,225.6,220.52,225.6z"/>
</g>
<g mask="url(#bottomLeft)">
	<path class="st4" d="M102.33,172.64h32.86l-13.12-17.63l-0.81,6.93c-0.16,1.48-1.5,2.54-2.98,2.33c-1.47-0.16-2.52-1.49-2.35-2.95
		l4.25-36.12c0.18-1.49,1.52-2.52,2.98-2.36c1.48,0.19,2.56,1.51,2.35,3.01l-2.51,21.43l18.89,25.37h39.27
		c1.23,0,2.23-1.01,2.23-2.22c-0.04-0.42-3.6-79.99-3.6-79.99c0-0.09,0-0.16,0-0.25c0-1.24-1.03-2.24-2.24-2.24h-71.61
		c-1.21,0-2.22,1.01-2.22,2.24c0,0.09,0,0.16,0,0.25c0,0-3.59,79.57-3.6,79.99C100.12,171.63,101.1,172.64,102.33,172.64z"/>
	<path class="st4" d="M192.11,55.59h-47.46V41.31h40.65c3.4,0,6.25,2.53,6.65,5.9c0.16,1.47,1.5,2.52,2.97,2.33
		c1.48-0.15,2.51-1.49,2.34-2.96c-0.69-6.06-5.84-10.63-11.96-10.63H98.18c-6.13,0-11.28,4.56-11.97,10.63
		c-0.19,1.47,0.88,2.81,2.34,2.96c1.48,0.18,2.82-0.86,2.97-2.33c0.41-3.37,3.27-5.9,6.65-5.9h41.11v14.28H91.37
		c-10.52,0-19.04,8.56-19.04,19.07V74.4l-6.1,132.73v0.13c0,10.5,8.54,19.05,19.06,19.05h16.42c0,2.77,0,6.64,0,7.8
		c-1.33,1.34-9.73,9.92-9.73,9.92c-0.51,0.54-0.77,1.21-0.77,1.89c0,0.69,0.25,1.4,0.8,1.93c1.08,1.02,2.75,1.02,3.8-0.04
		l10.5-10.74c0.51-0.51,0.77-1.18,0.77-1.88v-8.88h69.32v8.88c0,0.7,0.27,1.38,0.77,1.88l10.5,10.74c1.02,1.06,2.72,1.06,3.82,0.04
		c0.53-0.53,0.77-1.24,0.77-1.93c0-0.67-0.24-1.35-0.76-1.89c0,0-8.43-8.58-9.75-9.92c0-1.16,0-5.03,0-7.8h16.44
		c10.5,0,19.03-8.54,19.03-19.05v-0.13L211.15,74.4C211.01,64.02,202.54,55.59,192.11,55.59z M89.38,170.17l3.61-80.23
		c0,0.07,0,0.15,0,0.25c0-7.17,5.82-12.96,12.94-12.96h71.61c7.15,0,12.96,5.79,12.96,12.96c0-0.09,0-0.18,0-0.25l3.63,80.23
		c0,0.05,0,0.15,0,0.23c0,7.14-5.81,12.99-12.99,12.99h-78.82c-7.15,0-12.95-5.85-12.95-12.99
		C89.38,170.32,89.38,170.22,89.38,170.17z M115.36,204.82H93.23c-2.98,0-5.36-2.4-5.36-5.38c0-2.95,2.38-5.38,5.36-5.38h22.13
		c2.95,0,5.35,2.44,5.35,5.38C120.71,202.41,118.31,204.82,115.36,204.82z M190.26,204.82h-22.12c-2.98,0-5.38-2.4-5.38-5.38
		c0-2.95,2.4-5.38,5.38-5.38h22.12c2.99,0,5.38,2.44,5.38,5.38C195.64,202.41,193.25,204.82,190.26,204.82z"/>
	<path class="st4" d="M211.15,74.4L211.15,74.4c0,0.09,0.03,0.17,0.03,0.26L211.15,74.4z"/>
	<path class="st5" d="M102.33,183.39h78.82c7.18,0,12.99-5.85,12.99-12.99c0-0.07,0-0.18,0-0.23l-3.63-80.23c0,0.07,0,0.15,0,0.25
		c0-7.17-5.81-12.96-12.96-12.96h-71.61c-7.12,0-12.94,5.79-12.94,12.96c0-0.09,0-0.18,0-0.25l-3.61,80.23c0,0.05,0,0.15,0,0.23
		C89.38,177.54,95.18,183.39,102.33,183.39z M103.71,90.43c0-0.09,0-0.16,0-0.25c0-1.24,1-2.24,2.22-2.24h71.61
		c1.21,0,2.24,1.01,2.24,2.24c0,0.09,0,0.16,0,0.25c0,0,3.56,79.57,3.6,79.99c-0.01,1.22-1,2.22-2.23,2.22h-39.27l-18.89-25.37
		l2.51-21.43c0.21-1.5-0.87-2.82-2.35-3.01c-1.46-0.16-2.8,0.88-2.98,2.36l-4.25,36.12c-0.17,1.46,0.87,2.79,2.35,2.95
		c1.48,0.21,2.82-0.85,2.98-2.33l0.81-6.93l13.12,17.63h-32.86c-1.23,0-2.21-1.01-2.21-2.22C100.12,170,103.71,90.43,103.71,90.43z"
		/>
	<path class="st5" d="M115.36,194.05H93.23c-2.98,0-5.36,2.44-5.36,5.38c0,2.98,2.38,5.38,5.36,5.38h22.13
		c2.95,0,5.35-2.4,5.35-5.38C120.71,196.49,118.31,194.05,115.36,194.05z"/>
	<path class="st5" d="M190.26,194.05h-22.12c-2.98,0-5.38,2.44-5.38,5.38c0,2.98,2.4,5.38,5.38,5.38h22.12
		c2.99,0,5.38-2.4,5.38-5.38C195.64,196.49,193.25,194.05,190.26,194.05z"/>
	<path class="st5" d="M141.77,0C63.6,0,0,63.59,0,141.75c0,78.14,63.6,141.71,141.77,141.71c78.13,0,141.69-63.57,141.69-141.71
		C283.46,63.59,219.9,0,141.77,0z M217.23,207.26c0,10.5-8.53,19.05-19.03,19.05h-16.44c0,2.77,0,6.64,0,7.8
		c1.32,1.34,9.75,9.92,9.75,9.92c0.52,0.54,0.76,1.21,0.76,1.89c0,0.69-0.25,1.4-0.77,1.93c-1.1,1.02-2.8,1.02-3.82-0.04
		l-10.5-10.74c-0.5-0.51-0.77-1.18-0.77-1.88v-8.88h-69.32v8.88c0,0.7-0.26,1.38-0.77,1.88l-10.5,10.74
		c-1.04,1.06-2.72,1.06-3.8,0.04c-0.55-0.53-0.8-1.24-0.8-1.93c0-0.67,0.25-1.35,0.77-1.89c0,0,8.4-8.58,9.73-9.92
		c0-1.16,0-5.03,0-7.8H85.29c-10.51,0-19.06-8.54-19.06-19.05v-0.13l6.1-132.73v0.26c0-10.5,8.51-19.07,19.04-19.07h47.92V41.31
		H98.18c-3.38,0-6.24,2.53-6.65,5.9c-0.15,1.47-1.49,2.52-2.97,2.33c-1.46-0.15-2.54-1.49-2.34-2.96
		c0.69-6.06,5.84-10.63,11.97-10.63h87.12c6.12,0,11.28,4.56,11.96,10.63c0.17,1.47-0.86,2.81-2.34,2.96
		c-1.47,0.18-2.81-0.86-2.97-2.33c-0.4-3.37-3.25-5.9-6.65-5.9h-40.65v14.28h47.46c10.43,0,18.9,8.43,19.04,18.81l0-0.01l0.03,0.26
		c0-0.09-0.02-0.17-0.03-0.26l6.09,132.72V207.26z"/>
</g>
<g mask="url(#bottomRight)">
	<path class="st6" d="M141.77,0C63.59,0,0,63.59,0,141.75c0,78.15,63.59,141.71,141.77,141.71c78.13,0,141.69-63.57,141.69-141.71
		C283.46,63.59,219.9,0,141.77,0z"/>
	<g>
		<path class="st7" d="M184.18,179.76c-3.16,0-5.71,2.54-5.71,5.69c0,3.13,2.55,5.67,5.71,5.67c3.11,0,5.66-2.54,5.66-5.67
			C189.84,182.3,187.29,179.76,184.18,179.76z"/>
		<path class="st7" d="M99.3,179.76c-3.14,0-5.71,2.54-5.71,5.69c0,3.13,2.57,5.67,5.71,5.67c3.13,0,5.72-2.54,5.72-5.67
			C105.02,182.3,102.43,179.76,99.3,179.76z"/>
		<path class="st7" d="M214.2,72.96v0.19c0-10.51-8.57-19.07-19.08-19.07H88.33c-10.49,0-19.05,8.56-19.05,19.07v-0.19l-3.79,122.15
			v0.07c0,10.51,8.54,19.06,19.04,19.06h3.98v9.48c0,6.03,4.91,10.93,10.96,10.93c6.02,0,10.95-4.9,10.95-10.93v-9.48h62.62v9.48
			c0,6.03,4.92,10.93,10.94,10.93c6.09,0,10.98-4.9,10.98-10.93v-9.48h3.97c10.53,0,19.04-8.55,19.04-19.06V195L214.2,72.96z
			 M79.99,73.31v-0.16c0-4.6,3.76-8.32,8.34-8.32h106.79c4.59,0,8.32,3.72,8.32,8.32v0.16c0,0,0.13,3.41,0.29,9.16H79.73
			C79.91,76.72,79.99,73.31,79.99,73.31z M99.3,196.5c-6.1,0-11.04-4.97-11.04-11.05c0-6.1,4.94-11.06,11.04-11.06
			c6.1,0,11.05,4.96,11.05,11.06C110.34,191.53,105.4,196.5,99.3,196.5z M139.04,156.45H77.42c0.65-21.04,1.45-46.19,1.97-63.29
			h59.65V156.45z M184.18,196.5c-6.1,0-11.06-4.97-11.06-11.05c0-6.1,4.96-11.06,11.06-11.06c6.07,0,11.05,4.96,11.05,11.06
			C195.22,191.53,190.25,196.5,184.18,196.5z M144.41,156.45V93.15h59.65c0.52,17.1,1.32,42.25,1.97,63.29H144.41z"/>
	</g>
</g>
</svg>
